<mxfile host="app.diagrams.net" agent="Mozilla/5.0 (Windows NT 10.0; Win64; x64) AppleWebKit/537.36 (KHTML, like Gecko) Chrome/133.0.0.0 Safari/537.36" version="26.0.11">
  <diagram name="Page-1" id="jKKjk8goPxro3y-hyMKd">
    <mxGraphModel dx="2150" dy="1869" grid="1" gridSize="10" guides="1" tooltips="1" connect="1" arrows="1" fold="1" page="1" pageScale="1" pageWidth="827" pageHeight="1169" math="0" shadow="0">
      <root>
        <mxCell id="0" />
        <mxCell id="1" parent="0" />
        <mxCell id="Ng1n2AeZ-sS_buRmjHRw-1" value="START" style="ellipse;whiteSpace=wrap;html=1;fontFamily=Times New Roman;labelBackgroundColor=none;fontColor=#FFFFFF;labelBorderColor=default;fillColor=#182E3E;strokeColor=#FFFFFF;" vertex="1" parent="1">
          <mxGeometry x="320" y="-20" width="120" height="40" as="geometry" />
        </mxCell>
        <mxCell id="Ng1n2AeZ-sS_buRmjHRw-27" style="edgeStyle=orthogonalEdgeStyle;rounded=0;orthogonalLoop=1;jettySize=auto;html=1;strokeColor=#23445D;labelBackgroundColor=none;fontColor=default;" edge="1" parent="1" source="Ng1n2AeZ-sS_buRmjHRw-2" target="Ng1n2AeZ-sS_buRmjHRw-6">
          <mxGeometry relative="1" as="geometry">
            <Array as="points">
              <mxPoint x="380" y="460" />
              <mxPoint x="380" y="460" />
            </Array>
          </mxGeometry>
        </mxCell>
        <mxCell id="Ng1n2AeZ-sS_buRmjHRw-33" value="payment details&amp;nbsp;&lt;div&gt;from database&lt;/div&gt;" style="edgeLabel;html=1;align=center;verticalAlign=middle;resizable=0;points=[];" vertex="1" connectable="0" parent="Ng1n2AeZ-sS_buRmjHRw-27">
          <mxGeometry x="-0.1529" relative="1" as="geometry">
            <mxPoint x="-20" as="offset" />
          </mxGeometry>
        </mxCell>
        <mxCell id="Ng1n2AeZ-sS_buRmjHRw-2" value="DATABASE&lt;div&gt;&lt;br&gt;&lt;/div&gt;" style="strokeWidth=2;html=1;shape=mxgraph.flowchart.database;whiteSpace=wrap;strokeColor=#FFFFFF;fontColor=#FFFFFF;fillColor=#182E3E;labelBackgroundColor=none;" vertex="1" parent="1">
          <mxGeometry x="350" y="300" width="100" height="100" as="geometry" />
        </mxCell>
        <mxCell id="Ng1n2AeZ-sS_buRmjHRw-3" value="USER MANAGEMENT MODULE" style="strokeWidth=2;html=1;shape=mxgraph.flowchart.document2;whiteSpace=wrap;size=0.25;strokeColor=#FFFFFF;fontColor=#FFFFFF;fillColor=#182E3E;labelBackgroundColor=none;" vertex="1" parent="1">
          <mxGeometry x="340" y="120" width="110" height="70" as="geometry" />
        </mxCell>
        <mxCell id="Ng1n2AeZ-sS_buRmjHRw-14" style="edgeStyle=orthogonalEdgeStyle;rounded=0;orthogonalLoop=1;jettySize=auto;html=1;strokeColor=#23445D;labelBackgroundColor=none;fontColor=default;" edge="1" parent="1" source="Ng1n2AeZ-sS_buRmjHRw-4" target="Ng1n2AeZ-sS_buRmjHRw-2">
          <mxGeometry relative="1" as="geometry" />
        </mxCell>
        <mxCell id="Ng1n2AeZ-sS_buRmjHRw-40" value="service details stored" style="edgeLabel;html=1;align=center;verticalAlign=middle;resizable=0;points=[];" vertex="1" connectable="0" parent="Ng1n2AeZ-sS_buRmjHRw-14">
          <mxGeometry x="0.1238" y="-2" relative="1" as="geometry">
            <mxPoint as="offset" />
          </mxGeometry>
        </mxCell>
        <mxCell id="Ng1n2AeZ-sS_buRmjHRw-4" value="SERVICE MANAGEMENT MODULE" style="strokeWidth=2;html=1;shape=mxgraph.flowchart.document2;whiteSpace=wrap;size=0.25;strokeColor=#FFFFFF;fontColor=#FFFFFF;fillColor=#182E3E;labelBackgroundColor=none;" vertex="1" parent="1">
          <mxGeometry x="700" y="180" width="110" height="70" as="geometry" />
        </mxCell>
        <mxCell id="Ng1n2AeZ-sS_buRmjHRw-5" value="CLEANING AND MAINTANANCE TEAM" style="strokeWidth=2;html=1;shape=mxgraph.flowchart.decision;whiteSpace=wrap;strokeColor=#FFFFFF;fontColor=#FFFFFF;fillColor=#182E3E;labelBackgroundColor=none;" vertex="1" parent="1">
          <mxGeometry x="690" y="320" width="120" height="120" as="geometry" />
        </mxCell>
        <mxCell id="Ng1n2AeZ-sS_buRmjHRw-6" value="PAYMENT AND BILLING" style="strokeWidth=2;html=1;shape=mxgraph.flowchart.document2;whiteSpace=wrap;size=0.25;strokeColor=#FFFFFF;fontColor=#FFFFFF;fillColor=#182E3E;labelBackgroundColor=none;" vertex="1" parent="1">
          <mxGeometry x="350" y="570" width="100" height="60" as="geometry" />
        </mxCell>
        <mxCell id="Ng1n2AeZ-sS_buRmjHRw-7" value="PAYMENT PROCESSOR" style="strokeWidth=2;html=1;shape=mxgraph.flowchart.decision;whiteSpace=wrap;strokeColor=#FFFFFF;fontColor=#FFFFFF;fillColor=#182E3E;labelBackgroundColor=none;" vertex="1" parent="1">
          <mxGeometry x="30" y="350" width="120" height="110" as="geometry" />
        </mxCell>
        <mxCell id="Ng1n2AeZ-sS_buRmjHRw-8" value="REPORT AND ANALYTICS" style="strokeWidth=2;html=1;shape=mxgraph.flowchart.document2;whiteSpace=wrap;size=0.25;strokeColor=#FFFFFF;fontColor=#FFFFFF;fillColor=#182E3E;labelBackgroundColor=none;" vertex="1" parent="1">
          <mxGeometry x="-60" y="190" width="110" height="70" as="geometry" />
        </mxCell>
        <mxCell id="Ng1n2AeZ-sS_buRmjHRw-9" style="edgeStyle=orthogonalEdgeStyle;rounded=0;orthogonalLoop=1;jettySize=auto;html=1;entryX=0.423;entryY=0.083;entryDx=0;entryDy=0;entryPerimeter=0;strokeColor=#23445D;labelBackgroundColor=none;fontColor=default;" edge="1" parent="1" source="Ng1n2AeZ-sS_buRmjHRw-1" target="Ng1n2AeZ-sS_buRmjHRw-3">
          <mxGeometry relative="1" as="geometry" />
        </mxCell>
        <mxCell id="Ng1n2AeZ-sS_buRmjHRw-11" style="edgeStyle=orthogonalEdgeStyle;rounded=0;orthogonalLoop=1;jettySize=auto;html=1;entryX=0;entryY=0.15;entryDx=0;entryDy=0;entryPerimeter=0;strokeColor=#23445D;labelBackgroundColor=none;fontColor=default;" edge="1" parent="1" source="Ng1n2AeZ-sS_buRmjHRw-3" target="Ng1n2AeZ-sS_buRmjHRw-2">
          <mxGeometry relative="1" as="geometry" />
        </mxCell>
        <mxCell id="Ng1n2AeZ-sS_buRmjHRw-43" value="user registration&lt;div&gt;details stored&lt;/div&gt;" style="edgeLabel;html=1;align=center;verticalAlign=middle;resizable=0;points=[];" vertex="1" connectable="0" parent="Ng1n2AeZ-sS_buRmjHRw-11">
          <mxGeometry x="0.3143" relative="1" as="geometry">
            <mxPoint as="offset" />
          </mxGeometry>
        </mxCell>
        <mxCell id="Ng1n2AeZ-sS_buRmjHRw-12" style="edgeStyle=orthogonalEdgeStyle;rounded=0;orthogonalLoop=1;jettySize=auto;html=1;entryX=0;entryY=0.75;entryDx=0;entryDy=0;entryPerimeter=0;strokeColor=#23445D;labelBackgroundColor=none;fontColor=default;" edge="1" parent="1" source="Ng1n2AeZ-sS_buRmjHRw-2" target="Ng1n2AeZ-sS_buRmjHRw-4">
          <mxGeometry relative="1" as="geometry" />
        </mxCell>
        <mxCell id="Ng1n2AeZ-sS_buRmjHRw-39" value="user information retrieved" style="edgeLabel;html=1;align=center;verticalAlign=middle;resizable=0;points=[];" vertex="1" connectable="0" parent="Ng1n2AeZ-sS_buRmjHRw-12">
          <mxGeometry x="-0.0531" y="1" relative="1" as="geometry">
            <mxPoint as="offset" />
          </mxGeometry>
        </mxCell>
        <mxCell id="Ng1n2AeZ-sS_buRmjHRw-16" style="edgeStyle=orthogonalEdgeStyle;rounded=0;orthogonalLoop=1;jettySize=auto;html=1;entryX=0.75;entryY=0;entryDx=0;entryDy=0;entryPerimeter=0;strokeColor=#23445D;labelBackgroundColor=none;fontColor=default;" edge="1" parent="1" source="Ng1n2AeZ-sS_buRmjHRw-3" target="Ng1n2AeZ-sS_buRmjHRw-4">
          <mxGeometry relative="1" as="geometry" />
        </mxCell>
        <mxCell id="Ng1n2AeZ-sS_buRmjHRw-42" value="cleaning requests given" style="edgeLabel;html=1;align=center;verticalAlign=middle;resizable=0;points=[];" vertex="1" connectable="0" parent="Ng1n2AeZ-sS_buRmjHRw-16">
          <mxGeometry x="-0.4536" relative="1" as="geometry">
            <mxPoint as="offset" />
          </mxGeometry>
        </mxCell>
        <mxCell id="Ng1n2AeZ-sS_buRmjHRw-18" style="edgeStyle=orthogonalEdgeStyle;rounded=0;orthogonalLoop=1;jettySize=auto;html=1;entryX=0.5;entryY=0;entryDx=0;entryDy=0;entryPerimeter=0;strokeColor=#23445D;labelBackgroundColor=none;fontColor=default;" edge="1" parent="1" source="Ng1n2AeZ-sS_buRmjHRw-4" target="Ng1n2AeZ-sS_buRmjHRw-5">
          <mxGeometry relative="1" as="geometry" />
        </mxCell>
        <mxCell id="Ng1n2AeZ-sS_buRmjHRw-41" value="service details and&lt;div&gt;instructions given&amp;nbsp;&lt;/div&gt;" style="edgeLabel;html=1;align=center;verticalAlign=middle;resizable=0;points=[];" vertex="1" connectable="0" parent="Ng1n2AeZ-sS_buRmjHRw-18">
          <mxGeometry x="-0.5467" y="1" relative="1" as="geometry">
            <mxPoint as="offset" />
          </mxGeometry>
        </mxCell>
        <mxCell id="Ng1n2AeZ-sS_buRmjHRw-21" style="edgeStyle=orthogonalEdgeStyle;rounded=0;orthogonalLoop=1;jettySize=auto;html=1;entryX=0.5;entryY=1;entryDx=0;entryDy=0;entryPerimeter=0;strokeColor=#23445D;labelBackgroundColor=none;fontColor=default;" edge="1" parent="1" source="Ng1n2AeZ-sS_buRmjHRw-6" target="Ng1n2AeZ-sS_buRmjHRw-7">
          <mxGeometry relative="1" as="geometry" />
        </mxCell>
        <mxCell id="Ng1n2AeZ-sS_buRmjHRw-35" value="transaction request sent" style="edgeLabel;html=1;align=center;verticalAlign=middle;resizable=0;points=[];" vertex="1" connectable="0" parent="Ng1n2AeZ-sS_buRmjHRw-21">
          <mxGeometry x="-0.0017" y="3" relative="1" as="geometry">
            <mxPoint as="offset" />
          </mxGeometry>
        </mxCell>
        <mxCell id="Ng1n2AeZ-sS_buRmjHRw-31" style="edgeStyle=elbowEdgeStyle;rounded=0;orthogonalLoop=1;jettySize=auto;html=1;entryX=0;entryY=0.5;entryDx=0;entryDy=0;entryPerimeter=0;" edge="1" parent="1" source="Ng1n2AeZ-sS_buRmjHRw-8" target="Ng1n2AeZ-sS_buRmjHRw-2">
          <mxGeometry relative="1" as="geometry" />
        </mxCell>
        <mxCell id="Ng1n2AeZ-sS_buRmjHRw-44" value="all reports stored in&amp;nbsp;&lt;div&gt;database&lt;/div&gt;" style="edgeLabel;html=1;align=center;verticalAlign=middle;resizable=0;points=[];" vertex="1" connectable="0" parent="Ng1n2AeZ-sS_buRmjHRw-31">
          <mxGeometry x="-0.7208" y="2" relative="1" as="geometry">
            <mxPoint as="offset" />
          </mxGeometry>
        </mxCell>
        <mxCell id="Ng1n2AeZ-sS_buRmjHRw-32" style="edgeStyle=elbowEdgeStyle;rounded=0;orthogonalLoop=1;jettySize=auto;html=1;entryX=0.717;entryY=1.01;entryDx=0;entryDy=0;entryPerimeter=0;" edge="1" parent="1" source="Ng1n2AeZ-sS_buRmjHRw-6" target="Ng1n2AeZ-sS_buRmjHRw-2">
          <mxGeometry relative="1" as="geometry" />
        </mxCell>
        <mxCell id="Ng1n2AeZ-sS_buRmjHRw-34" value="payment details&lt;div&gt;stored in database&lt;/div&gt;" style="edgeLabel;html=1;align=center;verticalAlign=middle;resizable=0;points=[];" vertex="1" connectable="0" parent="Ng1n2AeZ-sS_buRmjHRw-32">
          <mxGeometry x="0.075" y="-5" relative="1" as="geometry">
            <mxPoint x="33" y="-9" as="offset" />
          </mxGeometry>
        </mxCell>
        <mxCell id="Ng1n2AeZ-sS_buRmjHRw-37" style="edgeStyle=elbowEdgeStyle;rounded=0;orthogonalLoop=1;jettySize=auto;html=1;entryX=0.01;entryY=0.763;entryDx=0;entryDy=0;entryPerimeter=0;" edge="1" parent="1" source="Ng1n2AeZ-sS_buRmjHRw-7" target="Ng1n2AeZ-sS_buRmjHRw-2">
          <mxGeometry relative="1" as="geometry" />
        </mxCell>
        <mxCell id="Ng1n2AeZ-sS_buRmjHRw-38" value="payment confirmation&lt;div&gt;stored in database&lt;/div&gt;" style="edgeLabel;html=1;align=center;verticalAlign=middle;resizable=0;points=[];" vertex="1" connectable="0" parent="Ng1n2AeZ-sS_buRmjHRw-37">
          <mxGeometry x="-0.4398" y="-1" relative="1" as="geometry">
            <mxPoint y="4" as="offset" />
          </mxGeometry>
        </mxCell>
        <mxCell id="Ng1n2AeZ-sS_buRmjHRw-45" style="edgeStyle=elbowEdgeStyle;rounded=0;orthogonalLoop=1;jettySize=auto;html=1;entryX=1;entryY=0.5;entryDx=0;entryDy=0;entryPerimeter=0;" edge="1" parent="1" source="Ng1n2AeZ-sS_buRmjHRw-5" target="Ng1n2AeZ-sS_buRmjHRw-6">
          <mxGeometry relative="1" as="geometry" />
        </mxCell>
        <mxCell id="Ng1n2AeZ-sS_buRmjHRw-46" value="payment requests&lt;div&gt;sent for payment&lt;/div&gt;" style="edgeLabel;html=1;align=center;verticalAlign=middle;resizable=0;points=[];" vertex="1" connectable="0" parent="Ng1n2AeZ-sS_buRmjHRw-45">
          <mxGeometry x="-0.0826" relative="1" as="geometry">
            <mxPoint as="offset" />
          </mxGeometry>
        </mxCell>
      </root>
    </mxGraphModel>
  </diagram>
</mxfile>
